<svg width="48" height="48" viewBox="0 0 48 48" fill="none" xmlns="http://www.w3.org/2000/svg">
<rect x="5" y="5" width="38" height="38" rx="19" fill="#405244"/>
<path d="M17.4175 23.2432V21.6328C17.4175 21.3893 17.5033 21.1846 17.6748 21.0186C17.8519 20.847 18.0622 20.7612 18.3057 20.7612C18.5547 20.7612 18.7677 20.847 18.9448 21.0186C19.1219 21.1846 19.2104 21.3893 19.2104 21.6328V23.1851C19.2104 24.1258 19.4124 24.9476 19.8164 25.6504C20.2259 26.3532 20.7904 26.8983 21.5098 27.2856C22.2292 27.6675 23.0592 27.8584 24 27.8584C24.9352 27.8584 25.7625 27.6675 26.4819 27.2856C27.2013 26.8983 27.763 26.3532 28.167 25.6504C28.571 24.9476 28.7729 24.1258 28.7729 23.1851V21.6328C28.7729 21.3893 28.8615 21.1846 29.0386 21.0186C29.2157 20.847 29.4287 20.7612 29.6777 20.7612C29.9268 20.7612 30.137 20.847 30.3086 21.0186C30.4857 21.1846 30.5742 21.3893 30.5742 21.6328V23.2432C30.5742 24.4219 30.3307 25.4622 29.8438 26.3643C29.3568 27.2663 28.6816 27.9884 27.8184 28.5308C26.9606 29.0731 25.9728 29.3996 24.855 29.5103V31.0459H27.8765C28.1255 31.0459 28.3385 31.1317 28.5156 31.3032C28.6982 31.4803 28.7896 31.6934 28.7896 31.9424C28.7896 32.1803 28.6982 32.3851 28.5156 32.5566C28.3385 32.7337 28.1255 32.8223 27.8765 32.8223H20.1152C19.8662 32.8223 19.6504 32.7337 19.4678 32.5566C19.2907 32.3851 19.2021 32.1803 19.2021 31.9424C19.2021 31.6934 19.2907 31.4803 19.4678 31.3032C19.6504 31.1317 19.8662 31.0459 20.1152 31.0459H23.1367V29.5103C22.0133 29.3996 21.0228 29.0731 20.165 28.5308C19.3073 27.9884 18.6349 27.2663 18.1479 26.3643C17.661 25.4622 17.4175 24.4219 17.4175 23.2432ZM24 26.1899C23.43 26.1899 22.9154 26.0571 22.4561 25.7915C22.0023 25.5259 21.6398 25.1551 21.3687 24.6792C21.103 24.2033 20.9702 23.6499 20.9702 23.019V17.4077C20.9702 16.7769 21.103 16.2235 21.3687 15.7476C21.6398 15.2716 22.0023 14.9009 22.4561 14.6353C22.9154 14.3696 23.43 14.2368 24 14.2368C24.5645 14.2368 25.0736 14.3696 25.5273 14.6353C25.9867 14.9009 26.3491 15.2716 26.6147 15.7476C26.8804 16.2235 27.0132 16.7769 27.0132 17.4077V23.019C27.0132 23.6499 26.8804 24.2033 26.6147 24.6792C26.3491 25.1551 25.9867 25.5259 25.5273 25.7915C25.0736 26.0571 24.5645 26.1899 24 26.1899Z" fill="#E8F6DE"/>
<path d="M40.5 45.8809C39.6562 45.8809 38.8652 45.7207 38.127 45.4004C37.3887 45.084 36.7383 44.6445 36.1758 44.082C35.6172 43.5234 35.1797 42.877 34.8633 42.1426C34.5469 41.4043 34.3887 40.6133 34.3887 39.7695C34.3887 38.9258 34.5469 38.1348 34.8633 37.3965C35.1797 36.6582 35.6172 36.0098 36.1758 35.4512C36.7383 34.8887 37.3887 34.4492 38.127 34.1328C38.8652 33.8164 39.6562 33.6582 40.5 33.6582C41.3438 33.6582 42.1348 33.8164 42.873 34.1328C43.6113 34.4492 44.2598 34.8887 44.8184 35.4512C45.377 36.0098 45.8145 36.6582 46.1309 37.3965C46.4512 38.1348 46.6113 38.9258 46.6113 39.7695C46.6113 40.6133 46.4512 41.4043 46.1309 42.1426C45.8145 42.877 45.377 43.5234 44.8184 44.082C44.2598 44.6445 43.6113 45.084 42.873 45.4004C42.1348 45.7207 41.3438 45.8809 40.5 45.8809ZM39.8496 42.6758C39.9668 42.6758 40.0742 42.6484 40.1719 42.5938C40.2734 42.5352 40.3594 42.4551 40.4297 42.3535L43.166 38.123C43.209 38.0566 43.2441 37.9863 43.2715 37.9121C43.3027 37.8379 43.3184 37.7637 43.3184 37.6895C43.3184 37.5254 43.2559 37.3926 43.1309 37.291C43.0098 37.1895 42.8711 37.1387 42.7148 37.1387C42.5078 37.1387 42.334 37.25 42.1934 37.4727L39.832 41.2461L38.748 39.8867C38.6699 39.7891 38.5918 39.7207 38.5137 39.6816C38.4355 39.6387 38.3477 39.6172 38.25 39.6172C38.0859 39.6172 37.9473 39.6758 37.834 39.793C37.7207 39.9062 37.6641 40.0449 37.6641 40.209C37.6641 40.2871 37.6777 40.3633 37.7051 40.4375C37.7363 40.5078 37.7793 40.5801 37.834 40.6543L39.2461 42.3535C39.332 42.4629 39.4238 42.5449 39.5215 42.5996C39.6191 42.6504 39.7285 42.6758 39.8496 42.6758Z" fill="#B6E294"/>
</svg>
