<svg width="16" height="16" viewBox="0 0 16 16" fill="none" xmlns="http://www.w3.org/2000/svg">
<path d="M1.95898 14.0352C1.8444 13.9258 1.76888 13.7956 1.73242 13.6445C1.69596 13.4935 1.69596 13.3424 1.73242 13.1914C1.77409 13.0404 1.84961 12.9128 1.95898 12.8086L6.75586 7.99609L1.95898 3.19141C1.84961 3.08724 1.77669 2.95964 1.74023 2.80859C1.70378 2.65755 1.70378 2.50651 1.74023 2.35547C1.77669 2.20443 1.84961 2.07422 1.95898 1.96484C2.07357 1.85026 2.20638 1.77474 2.35742 1.73828C2.50846 1.70182 2.65951 1.70182 2.81055 1.73828C2.96159 1.77474 3.0918 1.84766 3.20117 1.95703L8.00586 6.76172L12.8027 1.95703C12.9121 1.84245 13.0423 1.76953 13.1934 1.73828C13.3444 1.70182 13.4928 1.70182 13.6387 1.73828C13.7897 1.77474 13.9251 1.85026 14.0449 1.96484C14.1543 2.07422 14.2272 2.20443 14.2637 2.35547C14.3053 2.50651 14.3053 2.65755 14.2637 2.80859C14.2272 2.95443 14.1543 3.08464 14.0449 3.19922L9.24805 7.99609L14.0449 12.8008C14.1543 12.9154 14.2272 13.0482 14.2637 13.1992C14.3001 13.3451 14.3001 13.4935 14.2637 13.6445C14.2272 13.7956 14.1543 13.9258 14.0449 14.0352C13.9303 14.1497 13.7975 14.2253 13.6465 14.2617C13.4954 14.2982 13.3444 14.2982 13.1934 14.2617C13.0423 14.2253 12.9121 14.1523 12.8027 14.043L8.00586 9.23828L3.20117 14.043C3.0918 14.1523 2.96159 14.2253 2.81055 14.2617C2.66471 14.2982 2.51367 14.2982 2.35742 14.2617C2.20638 14.2253 2.07357 14.1497 1.95898 14.0352Z" fill="#E8F6DE"/>
</svg>
