<svg width="48" height="48" viewBox="0 0 48 48" fill="none" xmlns="http://www.w3.org/2000/svg">
<g clip-path="url(#clip0_10_69)" filter="url(#filter0_d_10_69)">
<path d="M38 14.6317C40.2091 14.6317 42 16.4226 42 18.6317V38.6317C42 40.8409 40.2091 42.6317 38 42.6317H10C7.79086 42.6317 6 40.8409 6 38.6317V18.6317C6 16.4226 7.79086 14.6317 10 14.6317H38ZM10.5625 36.6405C10.176 36.6405 9.8624 36.9542 9.8623 37.3407V38.7411C9.86249 39.1275 10.176 39.4413 10.5625 39.4413H12.3623C12.7488 39.4413 13.0623 39.1275 13.0625 38.7411V37.3407C13.0624 36.9542 12.7488 36.6405 12.3623 36.6405H10.5625ZM35.6377 36.6405C35.2512 36.6405 34.9376 36.9542 34.9375 37.3407V38.7411C34.9377 39.1275 35.2512 39.4413 35.6377 39.4413H37.4375C37.824 39.4413 38.1375 39.1275 38.1377 38.7411V37.3407C38.1376 36.9542 37.824 36.6405 37.4375 36.6405H35.6377ZM10.5625 31.9364C10.1759 31.9364 9.8623 32.25 9.8623 32.6366V34.036C9.86237 34.4226 10.1759 34.7362 10.5625 34.7362H12.3623C12.7489 34.7362 13.0624 34.4225 13.0625 34.036V32.6366C13.0625 32.25 12.7489 31.9364 12.3623 31.9364H10.5625ZM35.6377 31.9364C35.2511 31.9364 34.9375 32.25 34.9375 32.6366V34.036C34.9376 34.4225 35.2511 34.7362 35.6377 34.7362H37.4375C37.8241 34.7362 38.1376 34.4226 38.1377 34.036V32.6366C38.1377 32.25 37.8241 31.9364 37.4375 31.9364H35.6377ZM10.5625 27.2323C10.176 27.2323 9.86246 27.5451 9.8623 27.9315V29.3319C9.86242 29.7184 10.176 30.0321 10.5625 30.0321H12.3623C12.7488 30.0321 13.0624 29.7184 13.0625 29.3319V27.9315C13.0623 27.5451 12.7488 27.2323 12.3623 27.2323H10.5625ZM35.6377 27.2323C35.2512 27.2323 34.9377 27.5451 34.9375 27.9315V29.3319C34.9376 29.7184 35.2512 30.0321 35.6377 30.0321H37.4375C37.824 30.0321 38.1376 29.7184 38.1377 29.3319V27.9315C38.1375 27.5451 37.824 27.2323 37.4375 27.2323H35.6377ZM10.5625 22.5272C10.1759 22.5272 9.8623 22.8408 9.8623 23.2274V24.6268C9.86237 25.0134 10.1759 25.327 10.5625 25.327H12.3623C12.7489 25.327 13.0624 25.0134 13.0625 24.6268V23.2274C13.0625 22.8408 12.7489 22.5272 12.3623 22.5272H10.5625ZM35.6377 22.5272C35.2511 22.5272 34.9375 22.8408 34.9375 23.2274V24.6268C34.9376 25.0134 35.2511 25.327 35.6377 25.327H37.4375C37.8241 25.327 38.1376 25.0134 38.1377 24.6268V23.2274C38.1377 22.8408 37.8241 22.5272 37.4375 22.5272H35.6377ZM10.5625 17.8231C10.176 17.8231 9.86253 18.1359 9.8623 18.5223V19.9227C9.86237 20.3093 10.1759 20.6229 10.5625 20.6229H12.3623C12.7489 20.6229 13.0624 20.3093 13.0625 19.9227V18.5223C13.0623 18.1359 12.7488 17.8231 12.3623 17.8231H10.5625ZM35.6377 17.8231C35.2512 17.8231 34.9377 18.1359 34.9375 18.5223V19.9227C34.9376 20.3093 35.2511 20.6229 35.6377 20.6229H37.4375C37.8241 20.6229 38.1376 20.3093 38.1377 19.9227V18.5223C38.1375 18.1359 37.824 17.8231 37.4375 17.8231H35.6377Z" fill="#E8F6DE"/>
<path d="M32.4883 5.36829C33.5929 5.36829 34.4883 6.26372 34.4883 7.36829V7.59583H13.5117V7.36829C13.5117 6.26372 14.4071 5.36829 15.5117 5.36829H32.4883Z" fill="#E8F6DE"/>
<path d="M35.7344 9.96826C37.0293 9.96839 38.0945 10.953 38.2217 12.2144H9.77832C9.90556 10.9529 10.9706 9.96826 12.2656 9.96826H35.7344Z" fill="#E8F6DE"/>
</g>
<defs>
<filter id="filter0_d_10_69" x="-2" y="-2" width="52" height="52" filterUnits="userSpaceOnUse" color-interpolation-filters="sRGB">
<feFlood flood-opacity="0" result="BackgroundImageFix"/>
<feColorMatrix in="SourceAlpha" type="matrix" values="0 0 0 0 0 0 0 0 0 0 0 0 0 0 0 0 0 0 127 0" result="hardAlpha"/>
<feOffset/>
<feGaussianBlur stdDeviation="1"/>
<feComposite in2="hardAlpha" operator="out"/>
<feColorMatrix type="matrix" values="0 0 0 0 0 0 0 0 0 0 0 0 0 0 0 0 0 0 0.25 0"/>
<feBlend mode="normal" in2="BackgroundImageFix" result="effect1_dropShadow_10_69"/>
<feBlend mode="normal" in="SourceGraphic" in2="effect1_dropShadow_10_69" result="shape"/>
</filter>
<clipPath id="clip0_10_69">
<rect width="48" height="48" fill="white"/>
</clipPath>
</defs>
</svg>
