<svg width="48" height="48" viewBox="0 0 48 48" fill="none" xmlns="http://www.w3.org/2000/svg">
<rect x="5" y="5" width="38" height="38" rx="19" fill="#405244"/>
<path d="M17.4175 23.2432V21.6328C17.4175 21.3893 17.5033 21.1846 17.6748 21.0186C17.8519 20.847 18.0622 20.7612 18.3057 20.7612C18.5547 20.7612 18.7677 20.847 18.9448 21.0186C19.1219 21.1846 19.2104 21.3893 19.2104 21.6328V23.1851C19.2104 24.1258 19.4124 24.9476 19.8164 25.6504C20.2259 26.3532 20.7904 26.8983 21.5098 27.2856C22.2292 27.6675 23.0592 27.8584 24 27.8584C24.9352 27.8584 25.7625 27.6675 26.4819 27.2856C27.2013 26.8983 27.763 26.3532 28.167 25.6504C28.571 24.9476 28.7729 24.1258 28.7729 23.1851V21.6328C28.7729 21.3893 28.8615 21.1846 29.0386 21.0186C29.2157 20.847 29.4287 20.7612 29.6777 20.7612C29.9268 20.7612 30.137 20.847 30.3086 21.0186C30.4857 21.1846 30.5742 21.3893 30.5742 21.6328V23.2432C30.5742 24.4219 30.3307 25.4622 29.8438 26.3643C29.3568 27.2663 28.6816 27.9884 27.8184 28.5308C26.9606 29.0731 25.9728 29.3996 24.855 29.5103V31.0459H27.8765C28.1255 31.0459 28.3385 31.1317 28.5156 31.3032C28.6982 31.4803 28.7896 31.6934 28.7896 31.9424C28.7896 32.1803 28.6982 32.3851 28.5156 32.5566C28.3385 32.7337 28.1255 32.8223 27.8765 32.8223H20.1152C19.8662 32.8223 19.6504 32.7337 19.4678 32.5566C19.2907 32.3851 19.2021 32.1803 19.2021 31.9424C19.2021 31.6934 19.2907 31.4803 19.4678 31.3032C19.6504 31.1317 19.8662 31.0459 20.1152 31.0459H23.1367V29.5103C22.0133 29.3996 21.0228 29.0731 20.165 28.5308C19.3073 27.9884 18.6349 27.2663 18.1479 26.3643C17.661 25.4622 17.4175 24.4219 17.4175 23.2432ZM24 26.1899C23.43 26.1899 22.9154 26.0571 22.4561 25.7915C22.0023 25.5259 21.6398 25.1551 21.3687 24.6792C21.103 24.2033 20.9702 23.6499 20.9702 23.019V17.4077C20.9702 16.7769 21.103 16.2235 21.3687 15.7476C21.6398 15.2716 22.0023 14.9009 22.4561 14.6353C22.9154 14.3696 23.43 14.2368 24 14.2368C24.5645 14.2368 25.0736 14.3696 25.5273 14.6353C25.9867 14.9009 26.3491 15.2716 26.6147 15.7476C26.8804 16.2235 27.0132 16.7769 27.0132 17.4077V23.019C27.0132 23.6499 26.8804 24.2033 26.6147 24.6792C26.3491 25.1551 25.9867 25.5259 25.5273 25.7915C25.0736 26.0571 24.5645 26.1899 24 26.1899Z" fill="#E8F6DE"/>
<path d="M40.5 45.8809C39.6562 45.8809 38.8652 45.7207 38.127 45.4004C37.3887 45.084 36.7383 44.6445 36.1758 44.082C35.6172 43.5234 35.1797 42.877 34.8633 42.1426C34.5469 41.4043 34.3887 40.6133 34.3887 39.7695C34.3887 38.9258 34.5469 38.1348 34.8633 37.3965C35.1797 36.6582 35.6172 36.0098 36.1758 35.4512C36.7383 34.8887 37.3887 34.4492 38.127 34.1328C38.8652 33.8164 39.6562 33.6582 40.5 33.6582C41.3438 33.6582 42.1348 33.8164 42.873 34.1328C43.6113 34.4492 44.2598 34.8887 44.8184 35.4512C45.377 36.0098 45.8145 36.6582 46.1309 37.3965C46.4512 38.1348 46.6113 38.9258 46.6113 39.7695C46.6113 40.6133 46.4512 41.4043 46.1309 42.1426C45.8145 42.877 45.377 43.5234 44.8184 44.082C44.2598 44.6445 43.6113 45.084 42.873 45.4004C42.1348 45.7207 41.3438 45.8809 40.5 45.8809ZM38.6074 42.2656C38.7871 42.2656 38.9375 42.207 39.0586 42.0898L40.5059 40.6367L41.959 42.0898C42.0723 42.207 42.2168 42.2656 42.3926 42.2656C42.5645 42.2656 42.709 42.207 42.8262 42.0898C42.9434 41.9727 43.002 41.8281 43.002 41.6562C43.002 41.4883 42.9414 41.3477 42.8203 41.2344L41.3613 39.7754L42.8262 38.3164C42.9434 38.1953 43.002 38.0547 43.002 37.8945C43.002 37.7227 42.9434 37.5801 42.8262 37.4668C42.7129 37.3496 42.5723 37.291 42.4043 37.291C42.2324 37.291 42.0879 37.3496 41.9707 37.4668L40.5059 38.9258L39.0469 37.4727C38.9258 37.3555 38.7793 37.2969 38.6074 37.2969C38.4395 37.2969 38.2969 37.3555 38.1797 37.4727C38.0664 37.5859 38.0098 37.7285 38.0098 37.9004C38.0098 38.0605 38.0684 38.1992 38.1855 38.3164L39.6504 39.7754L38.1855 41.2402C38.0684 41.3574 38.0098 41.4961 38.0098 41.6562C38.0098 41.8281 38.0664 41.9727 38.1797 42.0898C38.2969 42.207 38.4395 42.2656 38.6074 42.2656Z" fill="#F17353"/>
</svg>
