<svg width="16" height="16" viewBox="0 0 16 16" fill="none" xmlns="http://www.w3.org/2000/svg">
<path d="M9.12891 3.91992C9.12889 4.54337 8.62345 5.04883 8 5.04883C7.37655 5.04883 6.87111 4.54337 6.87109 3.91992C6.87109 3.29646 7.37654 2.79102 8 2.79102C8.62346 2.79102 9.12891 3.29646 9.12891 3.91992ZM9.12891 8C9.12889 8.62345 8.62345 9.1289 8 9.12891C7.37655 9.12891 6.87111 8.62345 6.87109 8C6.87109 7.37654 7.37654 6.87109 8 6.87109C8.62346 6.8711 9.12891 7.37654 9.12891 8ZM9.12891 12.0801C9.12889 12.7035 8.62345 13.209 8 13.209C7.37655 13.209 6.87111 12.7035 6.87109 12.0801C6.87109 11.4566 7.37654 10.9512 8 10.9512C8.62346 10.9512 9.12891 11.4566 9.12891 12.0801Z" fill="#D9D9D9"/>
</svg>
