<svg width="16" height="16" viewBox="0 0 16 16" fill="none" xmlns="http://www.w3.org/2000/svg">
<path d="M11.4795 7.99658C11.4795 8.11507 11.4567 8.22445 11.4111 8.32471C11.3656 8.42497 11.2972 8.52067 11.2061 8.61182L5.88086 13.8208C5.73047 13.9757 5.54362 14.0532 5.32031 14.0532C5.17448 14.0532 5.04004 14.0168 4.91699 13.9438C4.79395 13.8755 4.69596 13.7798 4.62305 13.6567C4.55469 13.5382 4.52051 13.4061 4.52051 13.2603C4.52051 13.0415 4.60254 12.8478 4.7666 12.6792L9.56543 7.99658L4.7666 3.31396C4.60254 3.14535 4.52051 2.95394 4.52051 2.73975C4.52051 2.58936 4.55469 2.45492 4.62305 2.33643C4.69596 2.21794 4.79395 2.12451 4.91699 2.05615C5.04004 1.98324 5.17448 1.94678 5.32031 1.94678C5.54362 1.94678 5.73047 2.02197 5.88086 2.17236L11.2061 7.38135C11.2972 7.47249 11.3656 7.5682 11.4111 7.66846C11.4567 7.76872 11.4795 7.87809 11.4795 7.99658Z" fill="#E8F6DE"/>
</svg>
