<svg width="16" height="16" viewBox="0 0 16 16" fill="none" xmlns="http://www.w3.org/2000/svg">
<path d="M8.00098 3.1377C11.1765 3.13805 13.751 5.71307 13.751 8.88867C13.7507 12.064 11.1763 14.6383 8.00098 14.6387C4.82533 14.6387 2.25028 12.0643 2.25 8.88867C2.25 5.71285 4.82516 3.1377 8.00098 3.1377ZM8.00098 4.4707C5.56154 4.4707 3.58301 6.44923 3.58301 8.88867C3.58329 11.3279 5.56171 13.3047 8.00098 13.3047C10.4399 13.3043 12.4167 11.3277 12.417 8.88867C12.417 6.44945 10.4401 4.47105 8.00098 4.4707ZM9.35059 6.48438C9.61092 6.22444 10.0327 6.22429 10.293 6.48438C10.5533 6.74472 10.5533 7.16738 10.293 7.42773L8.59082 9.12891C8.33047 9.38926 7.90879 9.38925 7.64844 9.12891C7.38824 8.86855 7.38814 8.44682 7.64844 8.18652L9.35059 6.48438ZM9.79395 1.1543C10.1299 1.18865 10.3916 1.47334 10.3916 1.81836C10.3914 2.16319 10.1298 2.44709 9.79395 2.48145L9.72559 2.48438H6.27344C5.90538 2.48438 5.60666 2.18637 5.60645 1.81836C5.60645 1.45017 5.90525 1.15137 6.27344 1.15137H9.72559L9.79395 1.1543Z" fill="#E8F6DE"/>
</svg>
