<svg width="16" height="16" viewBox="0 0 16 16" fill="none" xmlns="http://www.w3.org/2000/svg">
<path d="M8 11.4795C7.77214 11.4795 7.56478 11.3883 7.37793 11.2061L2.17578 5.88086C2.09831 5.80794 2.03906 5.72591 1.99805 5.63477C1.96159 5.53906 1.94336 5.43652 1.94336 5.32715C1.94336 5.17676 1.97754 5.04004 2.0459 4.91699C2.11882 4.79395 2.21452 4.69824 2.33301 4.62988C2.4515 4.55697 2.58594 4.52051 2.73633 4.52051C2.95508 4.52051 3.14648 4.60254 3.31055 4.7666L8.33496 9.91406H7.67188L12.6895 4.7666C12.8535 4.60254 13.0449 4.52051 13.2637 4.52051C13.4141 4.52051 13.5485 4.55697 13.667 4.62988C13.7855 4.69824 13.8789 4.79395 13.9473 4.91699C14.0202 5.04004 14.0566 5.17676 14.0566 5.32715C14.0566 5.54134 13.9792 5.72591 13.8242 5.88086L8.62207 11.2061C8.53548 11.2972 8.43978 11.3656 8.33496 11.4111C8.23014 11.4567 8.11849 11.4795 8 11.4795Z" fill="#E8F6DE"/>
</svg>
