<svg width="16" height="16" viewBox="0 0 16 16" fill="none" xmlns="http://www.w3.org/2000/svg">
<path d="M14.4551 9.47436C14.4551 10.3888 14.265 11.1849 13.8848 11.8628C13.5047 12.5407 12.9548 13.0661 12.2352 13.4392C11.5202 13.8122 10.6558 13.9988 9.64202 13.9988H8.01278C7.79102 13.9988 7.61 13.926 7.4697 13.7804C7.3294 13.6348 7.25926 13.4574 7.25926 13.2481C7.25926 13.0434 7.3294 12.8682 7.4697 12.7227C7.61 12.5771 7.79102 12.5043 8.01278 12.5043H9.5945C10.3231 12.5043 10.9386 12.3701 11.441 12.1017C11.9479 11.8332 12.3303 11.467 12.5882 11.003C12.8507 10.5389 12.982 10.0112 12.982 9.41977C12.982 8.82834 12.8507 8.30516 12.5882 7.85022C12.3303 7.39527 11.9479 7.04042 11.441 6.78565C10.9386 6.52633 10.3231 6.39667 9.5945 6.39667H5.27701L2.98928 6.29431L3.19973 5.90533L4.89685 7.34523L6.6415 9.05126C6.70486 9.11496 6.75691 9.19002 6.79764 9.27646C6.83837 9.3629 6.85873 9.46071 6.85873 9.5699C6.85873 9.77917 6.79085 9.95205 6.65508 10.0885C6.52383 10.225 6.34733 10.2933 6.12557 10.2933C5.92192 10.2933 5.74542 10.2159 5.59607 10.0612L1.69268 6.2056C1.61574 6.12826 1.55691 6.04182 1.51617 5.94628C1.47544 5.85074 1.45508 5.75293 1.45508 5.65284C1.45508 5.5482 1.47544 5.44812 1.51617 5.35258C1.55691 5.25249 1.61574 5.16605 1.69268 5.09326L5.59607 1.23762C5.74542 1.07839 5.92192 0.998772 6.12557 0.998772C6.34733 0.998772 6.52383 1.06701 6.65508 1.2035C6.79085 1.33998 6.85873 1.51513 6.85873 1.72896C6.85873 1.83814 6.83837 1.93595 6.79764 2.02239C6.75691 2.10428 6.70486 2.17935 6.6415 2.24759L4.89685 3.96045L3.19973 5.40035L2.98928 5.00455L5.27701 4.89536H9.55377C10.5811 4.89536 11.4613 5.09099 12.1945 5.48224C12.9277 5.86894 13.4866 6.40577 13.8713 7.09273C14.2605 7.7797 14.4551 8.57358 14.4551 9.47436Z" fill="#E8F6DE"/>
</svg>
