<svg width="16" height="16" viewBox="0 0 16 16" fill="none" xmlns="http://www.w3.org/2000/svg">
<path d="M3.79492 9.3873C4.16302 9.3874 4.46159 9.68584 4.46159 10.054C4.46159 10.4221 4.16302 10.7205 3.79492 10.7206H2.83333V12.5123H13.1667V10.9478H12.4004C12.0322 10.9478 11.7338 10.6493 11.7337 10.2812C11.7337 9.91299 12.0322 9.61452 12.4004 9.61451H13.8333C14.2015 9.61451 14.5 9.91299 14.5 10.2812V13.179C14.4999 13.5471 14.2015 13.8456 13.8333 13.8456H2.16667C1.79851 13.8456 1.50006 13.5471 1.5 13.179V10.054L1.50326 9.98561C1.53748 9.64952 1.82155 9.3873 2.16667 9.3873H3.79492Z" fill="#E8F6DE"/>
<path d="M7.3336 2.50675C7.3336 2.13856 7.63208 1.84009 8.00027 1.84009C8.36846 1.84009 8.66693 2.13856 8.66693 2.50675V7.70402L10.2281 6.33813C10.5052 6.0959 10.9265 6.12427 11.1689 6.40129C11.4111 6.67838 11.3827 7.09965 11.1057 7.34204L8.43907 9.67537C8.1878 9.89504 7.81274 9.89504 7.56146 9.67537L4.8948 7.34204C4.61778 7.09965 4.58941 6.67838 4.83165 6.40129C5.07403 6.12427 5.49531 6.0959 5.7724 6.33813L7.3336 7.70402V2.50675Z" fill="#E8F6DE"/>
</svg>
