<svg width="16" height="16" viewBox="0 0 16 16" fill="none" xmlns="http://www.w3.org/2000/svg">
<path d="M4.60938 13.8379C4.28125 13.8379 4.03516 13.7559 3.87109 13.5918C3.71159 13.4277 3.63184 13.1816 3.63184 12.8535V3.13965C3.63184 2.81608 3.71387 2.57227 3.87793 2.4082C4.04199 2.24414 4.28581 2.16211 4.60938 2.16211H6.21582C6.53483 2.16211 6.77637 2.24186 6.94043 2.40137C7.10905 2.56087 7.19336 2.80697 7.19336 3.13965V12.8535C7.19336 13.1816 7.10905 13.4277 6.94043 13.5918C6.77637 13.7559 6.53483 13.8379 6.21582 13.8379H4.60938ZM9.79102 13.8379C9.46289 13.8379 9.2168 13.7559 9.05273 13.5918C8.88867 13.4277 8.80664 13.1816 8.80664 12.8535V3.13965C8.80664 2.81608 8.88867 2.57227 9.05273 2.4082C9.2168 2.24414 9.46289 2.16211 9.79102 2.16211H11.3838C11.7119 2.16211 11.958 2.24186 12.1221 2.40137C12.2861 2.56087 12.3682 2.80697 12.3682 3.13965V12.8535C12.3682 13.1816 12.2861 13.4277 12.1221 13.5918C11.958 13.7559 11.7119 13.8379 11.3838 13.8379H9.79102Z" fill="#E8F6DE"/>
</svg>
