<svg width="16" height="16" viewBox="0 0 16 16" fill="none" xmlns="http://www.w3.org/2000/svg">
<path d="M8.00098 3.1377C11.1765 3.13805 13.751 5.71307 13.751 8.88867C13.7507 12.064 11.1763 14.6383 8.00098 14.6387C4.82533 14.6387 2.25028 12.0643 2.25 8.88867C2.25 5.71285 4.82516 3.1377 8.00098 3.1377ZM8.00098 4.4707C5.56154 4.4707 3.58301 6.44923 3.58301 8.88867C3.58329 11.3279 5.56171 13.3047 8.00098 13.3047C10.4399 13.3043 12.4167 11.3277 12.417 8.88867C12.417 6.44945 10.4401 4.47105 8.00098 4.4707ZM9.4541 6.51855C10.5673 6.51855 11.2645 7.34198 11.2646 8.73047C11.2646 10.1104 10.5732 10.96 9.4541 10.96C8.3352 10.9598 7.64062 10.116 7.64062 8.7334C7.64072 7.34508 8.34407 6.51876 9.4541 6.51855ZM6.31738 6.55957C6.70375 6.55973 6.92957 6.79131 6.92969 7.16016V10.3916C6.92969 10.7137 6.7156 10.9217 6.39648 10.9219C6.07715 10.9219 5.86035 10.7139 5.86035 10.3916V7.57617H5.83984L5.3125 7.94238C5.21595 8.00968 5.15114 8.03314 5.04883 8.0332C4.84082 8.0332 4.68555 7.87793 4.68555 7.66113C4.68562 7.506 4.74717 7.38568 4.89941 7.28027L5.69922 6.73535C5.92461 6.58326 6.10657 6.55957 6.31738 6.55957ZM9.4541 7.35645C9.00908 7.35673 8.73346 7.81103 8.7334 8.73047C8.7334 9.65596 9.00903 10.1218 9.4541 10.1221C9.90234 10.1221 10.1719 9.65625 10.1719 8.7334C10.1718 7.80782 9.89937 7.35645 9.4541 7.35645ZM9.79395 1.1543C10.1299 1.18865 10.3916 1.47334 10.3916 1.81836C10.3914 2.16319 10.1298 2.44709 9.79395 2.48145L9.72559 2.48438H6.27344C5.90538 2.48438 5.60666 2.18637 5.60645 1.81836C5.60645 1.45017 5.90525 1.15137 6.27344 1.15137H9.72559L9.79395 1.1543Z" fill="#E8F6DE"/>
</svg>
