<svg width="16" height="16" viewBox="0 0 16 16" fill="none" xmlns="http://www.w3.org/2000/svg">
<path d="M7.99443 1.7168C8.74443 1.7168 9.45146 1.84375 10.1155 2.09766C10.7835 2.34766 11.3831 2.70117 11.9144 3.1582C12.4495 3.61133 12.8929 4.14258 13.2444 4.75195C13.596 5.36133 13.8323 6.02344 13.9534 6.73828H14.721C14.8694 6.73828 14.9788 6.76953 15.0491 6.83203C15.1233 6.89453 15.1585 6.97656 15.1546 7.07812C15.1507 7.17578 15.1097 7.2793 15.0315 7.38867L13.6722 9.28125C13.5745 9.41406 13.4612 9.48047 13.3323 9.48047C13.2073 9.47656 13.0979 9.41016 13.0042 9.28125L11.639 7.38867C11.5647 7.2793 11.5257 7.17578 11.5218 7.07812C11.5218 6.97656 11.5569 6.89453 11.6272 6.83203C11.7015 6.76953 11.8089 6.73828 11.9495 6.73828H12.7288C12.6116 6.1875 12.4085 5.67969 12.1194 5.21484C11.8343 4.75 11.4808 4.3457 11.0589 4.00195C10.6409 3.6582 10.1722 3.39062 9.65264 3.19922C9.13311 3.00781 8.58037 2.91211 7.99443 2.91211C7.32256 2.91211 6.68975 3.04297 6.096 3.30469C5.50225 3.56641 4.99053 3.92383 4.56084 4.37695C4.40068 4.52148 4.24639 4.58984 4.09795 4.58203C3.94951 4.57031 3.82451 4.51758 3.72295 4.42383C3.60576 4.32227 3.5374 4.18359 3.51787 4.00781C3.50225 3.83203 3.57061 3.67188 3.72295 3.52734C4.26201 2.96875 4.89873 2.52734 5.63311 2.20312C6.37139 1.87891 7.1585 1.7168 7.99443 1.7168ZM7.99443 13.8223C7.24834 13.8223 6.54131 13.6953 5.87334 13.4414C5.20928 13.1875 4.60967 12.832 4.07451 12.375C3.54326 11.9219 3.0999 11.3926 2.74443 10.7871C2.39287 10.1777 2.15654 9.51562 2.03545 8.80078H1.26787C1.12334 8.80078 1.01396 8.76953 0.939746 8.70703C0.865527 8.64453 0.830371 8.5625 0.834277 8.46094C0.838184 8.35938 0.879199 8.25586 0.957324 8.15039L2.32256 6.25195C2.41631 6.12305 2.52764 6.05859 2.65654 6.05859C2.78545 6.05859 2.89678 6.12305 2.99053 6.25195L4.3499 8.15039C4.42803 8.25977 4.46709 8.36523 4.46709 8.4668C4.471 8.56445 4.43584 8.64453 4.36162 8.70703C4.29131 8.76953 4.18389 8.80078 4.03936 8.80078H3.26592C3.3792 9.34766 3.57842 9.85352 3.86357 10.3184C4.15264 10.7832 4.50811 11.1895 4.92998 11.5371C5.35186 11.8809 5.82256 12.1484 6.34209 12.3398C6.86162 12.5312 7.4124 12.627 7.99443 12.627C8.67021 12.627 9.30303 12.4961 9.89287 12.2344C10.4866 11.9727 11.0003 11.6152 11.4339 11.1621C11.594 11.0176 11.7464 10.9512 11.8909 10.9629C12.0394 10.9707 12.1644 11.0195 12.2659 11.1094C12.387 11.2109 12.4554 11.3516 12.471 11.5312C12.4905 11.707 12.4222 11.8672 12.2659 12.0117C11.7308 12.5664 11.094 13.0059 10.3558 13.3301C9.62139 13.6582 8.83428 13.8223 7.99443 13.8223Z" fill="#E8F6DE"/>
</svg>
