<svg width="16" height="16" viewBox="0 0 16 16" fill="none" xmlns="http://www.w3.org/2000/svg">
<path d="M8.00098 3.1377C11.1765 3.13805 13.751 5.71307 13.751 8.88867C13.7507 12.064 11.1763 14.6383 8.00098 14.6387C4.82533 14.6387 2.25028 12.0643 2.25 8.88867C2.25 5.71285 4.82516 3.1377 8.00098 3.1377ZM8.00098 4.4707C5.56154 4.4707 3.58301 6.44923 3.58301 8.88867C3.58329 11.3279 5.56171 13.3047 8.00098 13.3047C10.4399 13.3043 12.4167 11.3277 12.417 8.88867C12.417 6.44945 10.4401 4.47105 8.00098 4.4707ZM9.04688 6.62695C9.30166 6.62695 9.46862 6.78826 9.46875 7.04004C9.46875 7.29199 9.30469 7.45312 9.04688 7.45312H7.42969L7.34766 8.5166H7.36816C7.53221 8.23839 7.8752 8.0538 8.31738 8.05371C9.11709 8.05371 9.69126 8.61637 9.69141 9.41895C9.69141 10.3477 8.99414 10.96 7.98926 10.96C7.2892 10.9599 6.66794 10.6435 6.45117 10.2129C6.40441 10.1192 6.37793 10.0194 6.37793 9.91699C6.37805 9.65361 6.53936 9.49524 6.81152 9.49512C7.01353 9.49512 7.14267 9.56275 7.27148 9.72363C7.43549 9.96965 7.64082 10.1308 7.98047 10.1309C8.38184 10.1309 8.67773 9.83789 8.67773 9.44238C8.67759 9.05582 8.39345 8.7832 7.98926 8.7832C7.75796 8.7833 7.57318 8.88873 7.43848 9.00879C7.27443 9.15232 7.166 9.20508 6.93164 9.20508C6.57738 9.20493 6.41602 8.9589 6.43359 8.6748V8.66016L6.54492 7.1748C6.57429 6.7884 6.78544 6.62705 7.14551 6.62695H9.04688ZM9.79395 1.1543C10.1299 1.18865 10.3916 1.47334 10.3916 1.81836C10.3914 2.16319 10.1298 2.44709 9.79395 2.48145L9.72559 2.48438H6.27344C5.90538 2.48438 5.60666 2.18637 5.60645 1.81836C5.60645 1.45017 5.90525 1.15137 6.27344 1.15137H9.72559L9.79395 1.1543Z" fill="#E8F6DE"/>
</svg>
