<svg width="17" height="18" viewBox="0 0 17 18" fill="none" xmlns="http://www.w3.org/2000/svg">
<path d="M8.49512 0.75C9.18547 0.75 9.74512 1.30964 9.74512 2V7.74512H15.5C16.1904 7.74512 16.75 8.30476 16.75 8.99512C16.75 9.68547 16.1904 10.2451 15.5 10.2451H9.74512V16C9.74512 16.6904 9.18547 17.25 8.49512 17.25C7.80476 17.25 7.24512 16.6904 7.24512 16V10.2451H1.5C0.809644 10.2451 0.25 9.68547 0.25 8.99512C0.25 8.30476 0.809644 7.74512 1.5 7.74512H7.24512V2C7.24512 1.30964 7.80476 0.75 8.49512 0.75Z" fill="#1C2D20"/>
</svg>
