<svg width="16" height="16" viewBox="0 0 16 16" fill="none" xmlns="http://www.w3.org/2000/svg">
<path d="M11.6965 11.3587C11.882 11.3587 11.9954 11.4409 12.0657 11.6302L12.886 13.8568C12.9094 13.9212 12.9192 13.9662 12.9192 14.0111C12.9192 14.1478 12.8137 14.2435 12.6672 14.2435C12.5308 14.2434 12.4543 14.1809 12.4094 14.0306L12.2239 13.4915H11.1712L10.9856 14.0267C10.9387 14.179 10.8645 14.2435 10.7337 14.2435C10.5796 14.2433 10.4797 14.1535 10.4797 14.0111C10.4798 13.972 10.4895 13.9172 10.5129 13.8568L11.3313 11.6322C11.3996 11.4448 11.5132 11.3588 11.6965 11.3587ZM8.73658 2.47396C9.00683 2.13577 9.54707 2.40813 9.4358 2.8265L8.30689 7.07064H11.1936C11.6932 7.07067 11.9744 7.64538 11.6672 8.03939L7.34693 13.5794C7.07915 13.9229 6.53293 13.6517 6.64478 13.2308L7.76197 9.02864L4.78932 8.95736C4.29322 8.94545 4.02455 8.37044 4.33424 7.98275L8.73658 2.47396ZM11.2903 13.0931H12.1008L11.7004 11.89H11.6868L11.2903 13.0931Z" fill="#E8F6DE"/>
</svg>
