<svg width="16" height="16" viewBox="0 0 16 16" fill="none" xmlns="http://www.w3.org/2000/svg">
<path d="M4.52051 7.99658C4.52051 7.87809 4.54102 7.76872 4.58203 7.66846C4.6276 7.5682 4.69596 7.47249 4.78711 7.38135L10.1123 2.17236C10.2673 2.02197 10.4541 1.94678 10.6729 1.94678C10.8232 1.94678 10.9577 1.98324 11.0762 2.05615C11.1992 2.12451 11.2972 2.21794 11.3701 2.33643C11.443 2.45492 11.4795 2.58936 11.4795 2.73975C11.4795 2.95394 11.3952 3.14535 11.2266 3.31396L6.42773 7.99658L11.2266 12.6792C11.3952 12.8478 11.4795 13.0415 11.4795 13.2603C11.4795 13.4061 11.443 13.5382 11.3701 13.6567C11.2972 13.7798 11.1992 13.8755 11.0762 13.9438C10.9577 14.0168 10.8232 14.0532 10.6729 14.0532C10.4541 14.0532 10.2673 13.9757 10.1123 13.8208L4.78711 8.61182C4.69596 8.52067 4.6276 8.42497 4.58203 8.32471C4.54102 8.22445 4.52051 8.11507 4.52051 7.99658Z" fill="#E8F6DE"/>
</svg>
