<svg width="16" height="16" viewBox="0 0 16 16" fill="none" xmlns="http://www.w3.org/2000/svg">
<path d="M1.46094 8C1.46094 7.76042 1.54688 7.55469 1.71875 7.38281C1.89062 7.20573 2.09635 7.11719 2.33594 7.11719H7.125V2.33594C7.125 2.09635 7.21094 1.89062 7.38281 1.71875C7.55469 1.54688 7.76042 1.46094 8 1.46094C8.24479 1.46094 8.45312 1.54688 8.625 1.71875C8.79688 1.89062 8.88281 2.09635 8.88281 2.33594V7.11719H13.6641C13.9036 7.11719 14.1094 7.20573 14.2812 7.38281C14.4531 7.55469 14.5391 7.76042 14.5391 8C14.5391 8.24479 14.4531 8.45312 14.2812 8.625C14.1094 8.79167 13.9036 8.875 13.6641 8.875H8.88281V13.6719C8.88281 13.9062 8.79688 14.1094 8.625 14.2812C8.45312 14.4531 8.24479 14.5391 8 14.5391C7.76042 14.5391 7.55469 14.4531 7.38281 14.2812C7.21094 14.1094 7.125 13.9062 7.125 13.6719V8.875H2.33594C2.09635 8.875 1.89062 8.79167 1.71875 8.625C1.54688 8.45312 1.46094 8.24479 1.46094 8Z" fill="#E8F6DE"/>
</svg>
