<svg width="16" height="16" viewBox="0 0 16 16" fill="none" xmlns="http://www.w3.org/2000/svg">
<path d="M9.02096 3.3207C9.02096 2.75678 8.5638 2.29963 7.99988 2.29963C7.43596 2.29963 6.9788 2.75678 6.9788 3.3207C6.9788 3.88463 7.43596 4.34178 7.99988 4.34178C8.5638 4.34178 9.02096 3.88463 9.02096 3.3207ZM9.60991 3.3207C9.60991 4.2099 8.88907 4.93073 7.99988 4.93073C7.11069 4.93073 6.38985 4.2099 6.38985 3.3207C6.38985 2.43151 7.11069 1.71068 7.99988 1.71068C8.88907 1.71068 9.60991 2.43151 9.60991 3.3207Z" fill="#E8F6DE"/>
<path d="M9.02096 3.3207C9.02096 2.75678 8.5638 2.29963 7.99988 2.29963C7.43596 2.29963 6.9788 2.75678 6.9788 3.3207C6.9788 3.88463 7.43596 4.34178 7.99988 4.34178C8.5638 4.34178 9.02096 3.88463 9.02096 3.3207Z" fill="#E8F6DE"/>
<path d="M11.738 1.64966C11.9612 1.37041 12.3658 1.26377 12.6502 1.42799C12.9347 1.59221 12.9826 1.98764 12.751 2.38469C12.552 2.62351 11.0692 4.80162 10.8073 5.17423C10.5455 5.54684 10.4247 5.68783 10.2736 6.29206C10.1577 7.40931 10.0096 8.91087 9.98926 8.9869C9.96755 9.06791 9.91773 9.19063 9.88639 9.2662C9.87864 9.28888 9.86998 9.3114 9.85905 9.33326L7.43392 14.4628C7.26925 14.7921 6.73654 14.8814 6.40723 14.7167C6.07801 14.552 5.88329 14.0727 6.04785 13.7434L8.09147 9.33326C8.08776 9.33045 8.01299 9.27539 7.88509 9.27531C7.7537 9.27531 7.65397 9.32293 7.64095 9.38534L6.78678 11.2089L6.36426 10.1959C6.36426 10.1959 6.24429 9.81507 6.17155 9.27531C6.13168 8.9794 6.12079 7.8247 6.11816 6.84172L4.69238 7.37362C4.69238 7.37362 5.00856 8.20278 5.1735 8.56177C5.33841 8.92068 5.30928 9.2749 4.90202 9.44459C4.49453 9.61424 4.21108 9.31713 4.03809 9.0175C3.86483 8.71732 3.27442 7.58169 3.27441 6.99602C3.27443 6.41032 3.74095 6.09986 4.03809 6.02011C4.33514 5.94049 5.89754 5.33744 6.11882 5.33716L6.92025 5.09237C6.9233 5.09581 7.14071 5.3371 7.90137 5.33716C8.30848 5.33716 8.76794 5.22919 9.09212 5.04419C9.23756 4.96118 9.35446 4.85707 9.43457 4.77531C9.46683 4.73218 9.49727 4.69504 9.52572 4.66659C9.52783 4.66368 11.5149 1.92892 11.738 1.64966Z" fill="#E8F6DE"/>
<path d="M9.42348 11.1503L8.59408 12.9644C8.59408 12.9644 9.18085 13.9261 9.42359 14.1689C9.66633 14.4116 10.1405 14.7051 10.53 14.3156C10.9196 13.9261 10.768 13.3911 10.5978 13.0963C10.4276 12.8015 9.42348 11.1503 9.42348 11.1503Z" fill="#E8F6DE"/>
</svg>
