<svg width="16" height="16" viewBox="0 0 16 16" fill="none" xmlns="http://www.w3.org/2000/svg">
<path d="M2.17578 10.1226L7.37793 4.79736C7.55566 4.61051 7.76302 4.51709 8 4.51709C8.11849 4.52165 8.23014 4.54899 8.33496 4.59912C8.43978 4.64469 8.53548 4.71077 8.62207 4.79736L13.8242 10.1226C13.9792 10.2729 14.0566 10.4598 14.0566 10.6831C14.0566 10.8335 14.0202 10.9679 13.9473 11.0864C13.8789 11.2049 13.7855 11.3006 13.667 11.3735C13.5485 11.4465 13.4141 11.4829 13.2637 11.4829C13.0358 11.4829 12.8444 11.4009 12.6895 11.2368L7.67188 6.09619H8.33496L3.31055 11.2368C3.16016 11.4009 2.96875 11.4829 2.73633 11.4829C2.58594 11.4829 2.4515 11.4465 2.33301 11.3735C2.21452 11.3006 2.11882 11.2049 2.0459 11.0864C1.97754 10.9679 1.94336 10.8335 1.94336 10.6831C1.94336 10.5737 1.96159 10.4712 1.99805 10.3755C2.03906 10.2798 2.09831 10.1955 2.17578 10.1226Z" fill="#E8F6DE"/>
</svg>
