<svg width="16" height="16" viewBox="0 0 16 16" fill="none" xmlns="http://www.w3.org/2000/svg">
<path d="M9.04025 11.3771L7.34591 13.5509C7.0781 13.8942 6.53192 13.6231 6.64376 13.2023L7.59591 9.61827L9.04025 11.3771ZM3.6965 2.78623C3.9098 2.61129 4.22439 2.64251 4.39962 2.85557L12.3733 12.5655C12.5483 12.7787 12.5178 13.0933 12.3049 13.2687C12.0915 13.4439 11.7761 13.4135 11.6008 13.2003L3.62716 3.49034C3.45195 3.27693 3.4831 2.96147 3.6965 2.78623ZM11.1926 7.04112C11.692 7.04112 11.9729 7.61586 11.6662 8.00987L10.7063 9.24034L8.9006 7.04112H11.1926ZM7.07443 8.9835L4.78829 8.92881C4.2924 8.91666 4.02455 8.34182 4.33419 7.9542L5.26779 6.78428L7.07443 8.9835ZM8.73556 2.44541C9.0058 2.10723 9.54601 2.37961 9.43478 2.79795L8.4504 6.49424L6.95529 4.67295L8.73556 2.44541Z" fill="#E8F6DE"/>
</svg>
