<svg width="16" height="16" viewBox="0 0 16 16" fill="none" xmlns="http://www.w3.org/2000/svg">
<path d="M10.4307 2C10.7987 2.00018 11.0967 2.29891 11.0967 2.66699V4.90332H13.333C13.7012 4.90332 14 5.20212 14 5.57031C13.9998 5.93835 13.7011 6.23633 13.333 6.23633H11.0967V9.76367H13.333C13.7011 9.76367 13.9998 10.0617 14 10.4297C14 10.7979 13.7012 11.0967 13.333 11.0967H11.0967V13.333C11.0967 13.7011 10.7987 13.9998 10.4307 14C10.0625 14 9.76367 13.7012 9.76367 13.333V11.0967H6.23633V13.333C6.23633 13.7012 5.93753 14 5.56934 14C5.2013 13.9998 4.90332 13.7011 4.90332 13.333V11.0967H2.66699C2.2988 11.0967 2 10.7979 2 10.4297C2.00019 10.0617 2.29892 9.76367 2.66699 9.76367H4.90332V6.23633H2.66699C2.29891 6.23633 2.00018 5.93835 2 5.57031C2 5.20212 2.2988 4.90332 2.66699 4.90332H4.90332V2.66699C4.90332 2.29891 5.2013 2.00018 5.56934 2C5.93753 2 6.23633 2.2988 6.23633 2.66699V4.90332H9.76367V2.66699C9.76367 2.2988 10.0625 2 10.4307 2ZM6.23633 6.23633V9.76367H9.76367V6.23633H6.23633Z" fill="#E8F6DE"/>
</svg>
