<svg width="16" height="16" viewBox="0 0 16 16" fill="none" xmlns="http://www.w3.org/2000/svg">
<path d="M3.73535 12.7666V3.11426C3.73535 2.736 3.83105 2.45573 4.02246 2.27344C4.21387 2.09115 4.44173 2 4.70605 2C4.94303 2 5.18001 2.06608 5.41699 2.19824L13.4902 6.91504C13.7819 7.08366 13.9915 7.24316 14.1191 7.39355C14.2513 7.54395 14.3174 7.72624 14.3174 7.94043C14.3174 8.15006 14.2513 8.33236 14.1191 8.4873C13.9915 8.6377 13.7819 8.7972 13.4902 8.96582L5.41699 13.6826C5.18001 13.8148 4.94303 13.8809 4.70605 13.8809C4.44173 13.8809 4.21387 13.7874 4.02246 13.6006C3.83105 13.4183 3.73535 13.1403 3.73535 12.7666Z" fill="#E8F6DE"/>
</svg>
