<svg width="16" height="16" viewBox="0 0 16 16" fill="none" xmlns="http://www.w3.org/2000/svg">
<path d="M7.99688 3.63083C7.72834 3.63083 7.48362 3.56586 7.26272 3.43592C7.04616 3.30598 6.87074 3.13057 6.73648 2.90967C6.60654 2.68878 6.54157 2.44406 6.54157 2.17552C6.54157 1.90698 6.60654 1.66227 6.73648 1.44137C6.87074 1.22048 7.04616 1.04506 7.26272 0.915122C7.48362 0.785184 7.72834 0.720215 7.99688 0.720215C8.26541 0.720215 8.51013 0.785184 8.73103 0.915122C8.95192 1.04506 9.12734 1.22048 9.25728 1.44137C9.39155 1.66227 9.45868 1.90698 9.45868 2.17552C9.45868 2.44406 9.39155 2.68878 9.25728 2.90967C9.12734 3.13057 8.95192 3.30598 8.73103 3.43592C8.51013 3.56586 8.26541 3.63083 7.99688 3.63083ZM7.99688 9.81589C7.87127 9.81589 7.77382 9.86353 7.70451 9.95882C7.63955 10.0541 7.57025 10.2209 7.49661 10.4591C7.44897 10.5934 7.38833 10.7991 7.3147 11.0763C7.24107 11.3492 7.15877 11.6588 7.06782 12.0053C6.98119 12.3475 6.8924 12.694 6.80144 13.0449C6.71482 13.3957 6.63469 13.7162 6.56106 14.0064C6.48743 14.2966 6.42679 14.524 6.37915 14.6886C6.27086 15.0827 6.0543 15.2798 5.72945 15.2798C5.51289 15.2798 5.34614 15.1953 5.22919 15.0264C5.11225 14.8618 5.08626 14.6712 5.15123 14.4547C5.15989 14.4244 5.18805 14.3009 5.23569 14.0844C5.28766 13.8721 5.35263 13.6014 5.4306 13.2722C5.50856 12.9474 5.59302 12.5944 5.68398 12.2132C5.77493 11.8321 5.85939 11.4596 5.93736 11.0958C6.01965 10.7276 6.09112 10.4006 6.15175 10.1147C6.21672 9.82455 6.26004 9.61232 6.28169 9.47805C6.31634 9.26582 6.34233 9.00811 6.35965 8.70492C6.38131 8.3974 6.39647 8.08121 6.40513 7.75637C6.4138 7.43152 6.41813 7.13266 6.41813 6.85979C6.42246 6.58692 6.42462 6.37902 6.42462 6.23609C6.42029 6.04552 6.37265 5.88959 6.28169 5.76831C6.19507 5.64704 6.07596 5.57124 5.92436 5.54092C5.85939 5.52793 5.72079 5.50844 5.50856 5.48245C5.30066 5.45213 5.05594 5.41965 4.77441 5.385C4.49721 5.34601 4.21784 5.30703 3.93631 5.26805C3.65477 5.22907 3.40573 5.19442 3.18916 5.1641C2.9726 5.12945 2.8275 5.10346 2.75387 5.08614C2.60661 5.05582 2.4875 4.98219 2.39654 4.86524C2.30991 4.7483 2.2666 4.6097 2.2666 4.44944C2.2666 4.25453 2.32507 4.10077 2.44202 3.98816C2.56329 3.87122 2.69973 3.81274 2.85132 3.81274C2.89897 3.81274 2.94878 3.81924 3.00075 3.83223C3.05706 3.8409 3.11553 3.85173 3.17617 3.86472C3.43605 3.91669 3.75656 3.96867 4.13771 4.02064C4.52319 4.06829 4.939 4.11377 5.38512 4.15708C5.83557 4.19606 6.28602 4.22855 6.73648 4.25453C7.18693 4.27619 7.60706 4.28702 7.99688 4.28702C8.39102 4.28702 8.81332 4.27402 9.26377 4.24804C9.71856 4.22205 10.1668 4.18956 10.6086 4.15058C11.0548 4.10727 11.4706 4.06179 11.856 4.01415C12.2415 3.96217 12.562 3.91236 12.8176 3.86472C12.8782 3.85173 12.9345 3.8409 12.9865 3.83223C13.0428 3.81924 13.0991 3.81274 13.1554 3.81274C13.3027 3.81274 13.4348 3.87122 13.5517 3.98816C13.673 4.1051 13.7336 4.25886 13.7336 4.44944C13.7336 4.60537 13.6882 4.73964 13.5972 4.85225C13.5106 4.96486 13.3915 5.04283 13.2399 5.08614C13.1749 5.10779 13.0341 5.13595 12.8176 5.1706C12.6054 5.20525 12.3563 5.24206 12.0704 5.28105C11.7889 5.3157 11.5052 5.35035 11.2193 5.385C10.9378 5.41965 10.6909 5.45213 10.4787 5.48245C10.2708 5.50844 10.1365 5.52793 10.0759 5.54092C9.91996 5.57557 9.79869 5.65353 9.71206 5.77481C9.62977 5.89175 9.58862 6.04552 9.58862 6.23609C9.58862 6.37902 9.58862 6.58692 9.58862 6.85979C9.59295 7.13266 9.59728 7.43152 9.60161 7.75637C9.61027 8.08121 9.62327 8.3974 9.64059 8.70492C9.65792 9.00811 9.68391 9.26582 9.71856 9.47805C9.73588 9.61232 9.77486 9.82455 9.8355 10.1147C9.89614 10.4006 9.96761 10.7276 10.0499 11.0958C10.1365 11.4596 10.2232 11.8321 10.3098 12.2132C10.3964 12.5944 10.4787 12.9474 10.5567 13.2722C10.639 13.6014 10.7061 13.8721 10.7581 14.0844C10.81 14.3009 10.8404 14.4244 10.849 14.4547C10.9053 14.6712 10.8772 14.8618 10.7646 15.0264C10.6519 15.1953 10.4874 15.2798 10.2708 15.2798C9.92429 15.2798 9.70773 15.0827 9.6211 14.6886C9.58212 14.524 9.52582 14.2944 9.45218 13.9999C9.38288 13.7097 9.30275 13.3892 9.2118 13.0384C9.12084 12.6875 9.02988 12.3389 8.93893 11.9924C8.8523 11.6459 8.77001 11.3362 8.69205 11.0633C8.61841 10.7904 8.55994 10.589 8.51663 10.4591C8.44733 10.2209 8.37586 10.0541 8.30223 9.95882C8.2286 9.86353 8.12681 9.81589 7.99688 9.81589Z" fill="#E8F6DE"/>
</svg>
