<svg width="24" height="24" viewBox="0 0 24 24" fill="none" xmlns="http://www.w3.org/2000/svg">
<g clip-path="url(#clip0_3412_7845)">
<mask id="mask0_3412_7845" style="mask-type:alpha" maskUnits="userSpaceOnUse" x="0" y="0" width="24" height="24">
<path d="M19.9951 9.0293C19.9951 8.74939 19.7692 8.5217 19.4893 8.51954L17.3926 8.50293C16.8108 8.49843 16.2691 8.20578 15.9463 7.72168L14.6172 5.72852C14.5226 5.58652 14.3631 5.5017 14.1924 5.50196L9.93167 5.50977C9.73929 5.51015 9.56289 5.61909 9.47659 5.79102L8.60062 7.53516C8.30484 8.12439 7.70422 8.49836 7.04495 8.50293L4.45608 8.52051C4.17504 8.52242 3.94789 8.75216 3.94925 9.03321L3.99319 17.9932C3.99471 18.2734 4.22178 18.4998 4.50198 18.5H19.4854C19.7668 18.5 19.9951 18.2717 19.9951 17.9902V9.0293ZM21.9951 17.9902C21.9951 19.3763 20.8714 20.5 19.4854 20.5H4.50198C3.12101 20.4998 2.00008 19.3839 1.99319 18.0029L1.94925 9.042C1.94278 7.65809 3.05848 6.5299 4.44241 6.52051L6.88089 6.50391L7.68948 4.89356C8.11451 4.04692 8.98042 3.51162 9.92776 3.50977L14.1885 3.50196C15.0292 3.5004 15.8149 3.9196 16.2813 4.61914L17.5381 6.50391L19.5049 6.51954C20.8833 6.53025 21.9951 7.6509 21.9951 9.0293V17.9902Z" fill="#E8F6DE"/>
<path d="M14.6016 12.8096C14.6016 11.3733 13.4372 10.209 12.001 10.209C10.5647 10.209 9.40039 11.3733 9.40039 12.8096C9.40039 14.2458 10.5647 15.4102 12.001 15.4102C13.4372 15.4102 14.6016 14.2458 14.6016 12.8096ZM16.1016 12.8096C16.1016 15.0743 14.2657 16.9102 12.001 16.9102C9.73629 16.9102 7.90039 15.0743 7.90039 12.8096C7.90039 10.5449 9.73629 8.70898 12.001 8.70898C14.2657 8.70898 16.1016 10.5449 16.1016 12.8096Z" fill="#E8F6DE"/>
<circle cx="17.9883" cy="10.2871" r="0.828125" fill="#E8F6DE"/>
</mask>
<g mask="url(#mask0_3412_7845)">
<rect width="24" height="24" fill="#E8F6DE"/>
</g>
</g>
<defs>
<clipPath id="clip0_3412_7845">
<rect width="24" height="24" fill="white"/>
</clipPath>
</defs>
</svg>
