<svg width="16" height="16" viewBox="0 0 16 16" fill="none" xmlns="http://www.w3.org/2000/svg">
<path d="M8.00098 3.1377C11.1765 3.13805 13.751 5.71307 13.751 8.88867C13.7507 12.064 11.1763 14.6383 8.00098 14.6387C4.82533 14.6387 2.25028 12.0643 2.25 8.88867C2.25 5.71285 4.82516 3.1377 8.00098 3.1377ZM8.00098 4.4707C5.56154 4.4707 3.58301 6.44923 3.58301 8.88867C3.58329 11.3279 5.56171 13.3047 8.00098 13.3047C10.4399 13.3043 12.4167 11.3277 12.417 8.88867C12.417 6.44945 10.4401 4.47105 8.00098 4.4707ZM7.91602 6.52148C8.83564 6.52158 9.49787 6.94069 9.49805 7.6582C9.49805 8.20006 9.1053 8.5458 8.62207 8.64258V8.66309C9.26046 8.72761 9.6649 9.08815 9.66504 9.65918C9.66504 10.4501 8.98224 10.9599 7.92188 10.96C7.02246 10.96 6.50684 10.5498 6.33691 10.1396C6.3018 10.0577 6.28418 9.96969 6.28418 9.89355C6.28431 9.6242 6.463 9.4541 6.75586 9.4541C6.96072 9.45418 7.09284 9.52748 7.19824 9.69727C7.35352 9.96094 7.54395 10.1162 7.94531 10.1162C8.31428 10.1161 8.57227 9.89932 8.57227 9.59473C8.57212 9.24051 8.30826 9.04989 7.83984 9.0498H7.7373C7.48242 9.0498 7.34766 8.90332 7.34766 8.68359C7.34778 8.46988 7.48254 8.32031 7.7373 8.32031H7.83398C8.24688 8.32021 8.49902 8.11808 8.49902 7.81055C8.49888 7.51198 8.28777 7.3214 7.92188 7.32129C7.62026 7.32129 7.42383 7.44458 7.29492 7.69629C7.17486 7.92177 7.04569 8.00676 6.80859 8.00684C6.51562 8.00684 6.36621 7.83105 6.36621 7.58496C6.36624 7.49428 6.3809 7.4208 6.41895 7.33008C6.58608 6.92005 7.08423 6.52148 7.91602 6.52148ZM9.79395 1.1543C10.1299 1.18865 10.3916 1.47334 10.3916 1.81836C10.3914 2.16319 10.1298 2.44709 9.79395 2.48145L9.72559 2.48438H6.27344C5.90538 2.48438 5.60666 2.18637 5.60645 1.81836C5.60645 1.45017 5.90525 1.15137 6.27344 1.15137H9.72559L9.79395 1.1543Z" fill="#E8F6DE"/>
</svg>
