<svg width="16" height="16" viewBox="0 0 16 16" fill="none" xmlns="http://www.w3.org/2000/svg">
<path d="M13.5537 4.6875C14.2899 4.68768 14.8867 5.28424 14.8867 6.02051V9.97949C14.8867 10.7157 14.2899 11.3123 13.5537 11.3125H2.44629C1.7562 11.3123 1.18855 10.7883 1.12012 10.1162L1.11328 9.97949V6.02051C1.11328 5.28424 1.71006 4.68768 2.44629 4.6875H13.5537ZM4.13672 9.97949H11.8486V6.02051H10.7578C10.7233 6.16344 10.6805 6.30495 10.624 6.44141C10.4813 6.78575 10.2723 7.09871 10.0088 7.3623C9.74506 7.62604 9.43149 7.83576 9.08691 7.97852C8.74239 8.12116 8.37289 8.19434 8 8.19434C7.62711 8.19434 7.25761 8.12116 6.91309 7.97852C6.56851 7.83576 6.25494 7.62604 5.99121 7.3623C5.72765 7.09871 5.5187 6.78575 5.37598 6.44141C5.31946 6.30495 5.27671 6.16344 5.24219 6.02051H4.13672V9.97949ZM12.915 9.97949H13.5537V6.02051H12.915V9.97949ZM2.44629 9.97949H3.07031V6.02051H2.44629V9.97949ZM6.36133 6.0332C6.45045 6.24815 6.5806 6.44384 6.74512 6.6084C6.90978 6.77307 7.10616 6.90304 7.32129 6.99219C7.53647 7.08129 7.7671 7.12793 8 7.12793C8.2329 7.12793 8.46353 7.08129 8.67871 6.99219C8.89384 6.90304 9.09022 6.77307 9.25488 6.6084C9.4194 6.44384 9.54955 6.24815 9.63867 6.0332C9.64036 6.02912 9.6419 6.02461 9.64355 6.02051H6.35645C6.3581 6.02461 6.35964 6.02912 6.36133 6.0332Z" fill="#E8F6DE"/>
</svg>
