<svg width="16" height="16" viewBox="0 0 16 16" fill="none" xmlns="http://www.w3.org/2000/svg">
<path d="M1.45508 9.47559C1.45508 8.5748 1.64968 7.78093 2.03889 7.09396C2.4281 6.407 2.98702 5.87017 3.71565 5.48346C4.44881 5.09221 5.32906 4.89659 6.35638 4.89659H10.6331L12.9209 5.00577L12.7104 5.40157L11.0133 3.96168L9.26866 2.24882C9.20077 2.18058 9.14646 2.10551 9.10573 2.02362C9.06953 1.93718 9.05142 1.83937 9.05142 1.73018C9.05142 1.51636 9.11705 1.34121 9.24829 1.20472C9.38406 1.06824 9.56056 1 9.77779 1C9.98598 1 10.167 1.07962 10.3209 1.23885L14.2175 5.09449C14.2944 5.16728 14.3533 5.25372 14.394 5.35381C14.4347 5.44934 14.4551 5.54943 14.4551 5.65407C14.4551 5.75416 14.4347 5.85197 14.394 5.94751C14.3533 6.04304 14.2944 6.12948 14.2175 6.20682L10.3209 10.0625C10.167 10.2171 9.98598 10.2945 9.77779 10.2945C9.56056 10.2945 9.38406 10.2262 9.24829 10.0898C9.11705 9.95328 9.05142 9.7804 9.05142 9.57113C9.05142 9.46194 9.06953 9.36413 9.10573 9.27769C9.14646 9.19125 9.20077 9.11619 9.26866 9.05249L11.0133 7.34646L12.7104 5.90656L12.9209 6.29554L10.6331 6.3979H6.32244C5.58928 6.3979 4.97153 6.52756 4.46918 6.78688C3.96683 7.04165 3.58441 7.3965 3.32192 7.85144C3.05943 8.30639 2.92819 8.82957 2.92819 9.421C2.92819 10.0124 3.05943 10.5402 3.32192 11.0042C3.58441 11.4682 3.96683 11.8345 4.46918 12.1029C4.97153 12.3713 5.58928 12.5055 6.32244 12.5055H7.89738C8.11913 12.5055 8.30016 12.5783 8.44046 12.7239C8.58528 12.8695 8.65769 13.0446 8.65769 13.2493C8.65769 13.4586 8.58528 13.636 8.44046 13.7816C8.30016 13.9272 8.11913 14 7.89738 14H6.26813C5.25438 14 4.38772 13.8135 3.66813 13.4404C2.95308 13.0674 2.40547 12.5419 2.02531 11.864C1.64516 11.1862 1.45508 10.39 1.45508 9.47559Z" fill="#E8F6DE"/>
</svg>
