<svg width="48" height="48" viewBox="0 0 48 48" fill="none" xmlns="http://www.w3.org/2000/svg">
<rect x="5" y="5" width="38" height="38" rx="19" fill="#405244"/>
<path d="M30.9395 22.2969C31.2438 22.2969 31.5039 22.1917 31.7197 21.9814C31.9355 21.7656 32.0435 21.5055 32.0435 21.2012C32.0435 20.8968 31.9355 20.6367 31.7197 20.4209C31.5039 20.2051 31.2438 20.0972 30.9395 20.0972C30.6351 20.0972 30.375 20.2051 30.1592 20.4209C29.9434 20.6367 29.8354 20.8968 29.8354 21.2012C29.8354 21.5055 29.9434 21.7656 30.1592 21.9814C30.375 22.1973 30.6351 22.3024 30.9395 22.2969ZM16.5044 31.8428C15.5858 31.8428 14.8857 31.6048 14.4043 31.1289C13.9284 30.6585 13.6904 29.9696 13.6904 29.062V20.3296C13.6904 19.4276 13.9284 18.7386 14.4043 18.2627C14.8857 17.7868 15.5858 17.5488 16.5044 17.5488H18.5713C18.8978 17.5488 19.1413 17.5129 19.3018 17.4409C19.4678 17.369 19.6532 17.2279 19.8579 17.0176L20.5137 16.3369C20.735 16.11 20.973 15.9412 21.2275 15.8306C21.4821 15.7199 21.8169 15.6646 22.2319 15.6646H25.7183C26.1388 15.6646 26.4764 15.7199 26.731 15.8306C26.9855 15.9412 27.2235 16.11 27.4448 16.3369L28.1006 17.0176C28.2389 17.1615 28.3634 17.2721 28.4741 17.3496C28.5903 17.4271 28.7148 17.4797 28.8477 17.5073C28.986 17.535 29.1659 17.5488 29.3872 17.5488H31.4956C32.4087 17.5488 33.106 17.7868 33.5874 18.2627C34.0688 18.7386 34.3096 19.4276 34.3096 20.3296V29.062C34.3096 29.9696 34.0688 30.6585 33.5874 31.1289C33.106 31.6048 32.4087 31.8428 31.4956 31.8428H16.5044ZM24 29.145C24.6143 29.145 25.1898 29.0316 25.7266 28.8047C26.2633 28.5723 26.7337 28.2541 27.1377 27.8501C27.5472 27.4406 27.8654 26.9674 28.0923 26.4307C28.3247 25.8939 28.4409 25.3128 28.4409 24.6875C28.4409 23.863 28.2417 23.1131 27.8433 22.438C27.4504 21.7629 26.9163 21.2288 26.2412 20.8359C25.5661 20.4375 24.819 20.2383 24 20.2383C23.3802 20.2383 22.8019 20.3517 22.2651 20.5786C21.7284 20.8055 21.2552 21.1237 20.8457 21.5332C20.4417 21.9427 20.1235 22.4159 19.8911 22.9526C19.6642 23.4894 19.5508 24.0677 19.5508 24.6875C19.5508 25.3128 19.6642 25.8939 19.8911 26.4307C20.1235 26.9674 20.4417 27.4406 20.8457 27.8501C21.2552 28.2541 21.7284 28.5723 22.2651 28.8047C22.8019 29.0316 23.3802 29.145 24 29.145ZM24 27.4932C23.4798 27.4932 23.0067 27.3687 22.5806 27.1196C22.16 26.8651 21.8224 26.5275 21.5679 26.1069C21.3188 25.6808 21.1943 25.2077 21.1943 24.6875C21.1943 24.1673 21.3188 23.6969 21.5679 23.2764C21.8224 22.8503 22.16 22.5127 22.5806 22.2637C23.0067 22.0091 23.4798 21.8818 24 21.8818C24.5146 21.8818 24.9823 22.0091 25.4028 22.2637C25.8289 22.5127 26.1665 22.8503 26.4155 23.2764C26.6701 23.6969 26.7974 24.1673 26.7974 24.6875C26.7974 25.2077 26.6701 25.6808 26.4155 26.1069C26.1665 26.5275 25.8289 26.8651 25.4028 27.1196C24.9823 27.3687 24.5146 27.4932 24 27.4932Z" fill="#E8F6DE"/>
<path d="M40.5 45.8809C39.6562 45.8809 38.8652 45.7207 38.127 45.4004C37.3887 45.084 36.7383 44.6445 36.1758 44.082C35.6172 43.5234 35.1797 42.877 34.8633 42.1426C34.5469 41.4043 34.3887 40.6133 34.3887 39.7695C34.3887 38.9258 34.5469 38.1348 34.8633 37.3965C35.1797 36.6582 35.6172 36.0098 36.1758 35.4512C36.7383 34.8887 37.3887 34.4492 38.127 34.1328C38.8652 33.8164 39.6562 33.6582 40.5 33.6582C41.3438 33.6582 42.1348 33.8164 42.873 34.1328C43.6113 34.4492 44.2598 34.8887 44.8184 35.4512C45.377 36.0098 45.8145 36.6582 46.1309 37.3965C46.4512 38.1348 46.6113 38.9258 46.6113 39.7695C46.6113 40.6133 46.4512 41.4043 46.1309 42.1426C45.8145 42.877 45.377 43.5234 44.8184 44.082C44.2598 44.6445 43.6113 45.084 42.873 45.4004C42.1348 45.7207 41.3438 45.8809 40.5 45.8809ZM39.8496 42.6758C39.9668 42.6758 40.0742 42.6484 40.1719 42.5938C40.2734 42.5352 40.3594 42.4551 40.4297 42.3535L43.166 38.123C43.209 38.0566 43.2441 37.9863 43.2715 37.9121C43.3027 37.8379 43.3184 37.7637 43.3184 37.6895C43.3184 37.5254 43.2559 37.3926 43.1309 37.291C43.0098 37.1895 42.8711 37.1387 42.7148 37.1387C42.5078 37.1387 42.334 37.25 42.1934 37.4727L39.832 41.2461L38.748 39.8867C38.6699 39.7891 38.5918 39.7207 38.5137 39.6816C38.4355 39.6387 38.3477 39.6172 38.25 39.6172C38.0859 39.6172 37.9473 39.6758 37.834 39.793C37.7207 39.9062 37.6641 40.0449 37.6641 40.209C37.6641 40.2871 37.6777 40.3633 37.7051 40.4375C37.7363 40.5078 37.7793 40.5801 37.834 40.6543L39.2461 42.3535C39.332 42.4629 39.4238 42.5449 39.5215 42.5996C39.6191 42.6504 39.7285 42.6758 39.8496 42.6758Z" fill="#B6E294"/>
</svg>
